<?xml version="1.0" encoding="utf-8"?>
<!-- Generator: Adobe Illustrator 24.0.1, SVG Export Plug-In . SVG Version: 6.00 Build 0)  -->
<svg version="1.1" id="be452e83-5912-4855-80f8-a79ecab91838"
	 xmlns="http://www.w3.org/2000/svg" xmlns:xlink="http://www.w3.org/1999/xlink" x="0px" y="0px" viewBox="0 0 819.5 600.5"
	 style="enable-background:new 0 0 819.5 600.5;" xml:space="preserve">
<style type="text/css">
	.st0{fill:#F2F2F2;}
	.st1{fill:#FF6584;}
	.st2{fill:#3F3D56;}
	.st3{fill:#FF3D00;}
	.st4{fill:#2F2E41;}
	.st5{fill:#FFB8B8;}
	.st6{opacity:0.1;enable-background:new    ;}
	.st7{fill:none;stroke:#3F3D56;stroke-miterlimit:10;}
	.st8{fill:#FFFFFF;}
	.st9{fill:#57B894;}
</style>
<title>happy_news</title>
<path class="st0" d="M189.5,260.3c-46.3,0.2-83.9,0.9-83.9,0.9s44.8-59.3,83.8-37.3s83.8,36.6,83.8,36.6S235.7,260.1,189.5,260.3z"
	/>
<circle class="st1" cx="708.4" cy="268.2" r="9.7"/>
<rect x="619.6" y="377.6" transform="matrix(0.6567 -0.7541 0.7541 0.6567 -54.2862 638.9998)" class="st2" width="110.4" height="3"/>
<circle class="st2" cx="711" cy="337.5" r="15.6"/>
<path class="st2" d="M666.3,388.8c0,0,29.8-37.6-8.3-63.4"/>
<path class="st2" d="M179.9,454.9c53.7,99.6,167.6,142.3,167.6,142.3s26.9-118.7-26.8-218.3S153.1,236.6,153.1,236.6
	S126.2,355.3,179.9,454.9z"/>
<path class="st3" d="M216.8,422.1C313.7,480.4,351,596.3,351,596.3s-119.8,21.3-216.8-37S0,385.1,0,385.1S119.8,363.8,216.8,422.1z"
	/>
<path class="st2" d="M602.4,423c-97.4,57.5-135.8,173-135.8,173s119.6,22.3,217.1-35.1c97.4-57.5,135.8-173,135.8-173
	S699.9,365.5,602.4,423z"/>
<path class="st3" d="M636.6,458.6C582,557.7,467.7,599.4,467.7,599.4s-25.8-118.9,28.7-218s168.9-140.8,168.9-140.8
	S691.1,359.5,636.6,458.6z"/>
<path class="st4" d="M438.5,185.8c-11.7-10.6-13.3-28.3-3.8-40.8c-0.6,0.6-1.2,1.2-1.8,1.8c-11.2,12.4-10.3,31.6,2.2,42.8
	c12.4,11.2,31.6,10.3,42.8-2.2c0.6-0.6,1.1-1.3,1.6-1.9C468.1,196.2,450.2,196.4,438.5,185.8z"/>
<circle class="st4" cx="411.1" cy="145" r="62.4"/>
<path class="st5" d="M394,225.1l1.8-4.8l-33.6,28.5l-40.7,22.9c0,0-20.7-79.9-22.2-81.3s-28.1-57.7-39.9-31.1s22.9,42.1,22.9,42.1
	s1.1,97.2,36.6,96.5s79.5-32.9,80.2-35.9S394,225.1,394,225.1z"/>
<circle class="st5" cx="403.6" cy="171.9" r="37"/>
<path class="st5" d="M411,198.5c0,0,9.6,12.6,6.7,14s-20,2.2-30.3,14.8s12.6,44.4,12.6,44.4l87.2-58.4l-35.5-11.8
	c0,0-24.4-13.3-23.7-27.4L411,198.5z"/>
<path class="st4" d="M528.7,600.5h-98.5c-5.6-40.8-8.2-78.2-8.2-78.2s-1.4,37.6-5.3,78.2H290.2c17.9-120.2,103-250.5,103-250.5
	s0.7-17.8,3-20.7c2.2-3-12.6-3.7-19.2-25.9c-4.1-13.5-0.4-22.4,3.1-27.2c1.2-1.7,2.7-3.3,4.3-4.6c0,0,1.5-15.5,0-17.7
	c-0.2-0.3,1.3-1.3,4-2.9c2.2-1.3,5.4-3,9.1-4.9c21.3-11,62.6-30.6,76.7-37.3c3.1-1.5,4.9-2.3,4.9-2.3l25.1,8.9
	c20,6.6,20,48.8,20,48.8L523,266l-30.2,45.7l-17.5,26.5c4.4,3-4.4,21.4-4.4,21.4s12.6,18.2,22.9,45.9c5.8,15.4,9.8,31.5,11.8,47.8
	c1.3,10.6,1.6,21.3,0.8,32C503.6,521,515.8,564.3,528.7,600.5z"/>
<path class="st5" d="M504.5,219.9c-3.1-1.7-7-0.6-8.8,2.5c-0.2,0.3-0.3,0.6-0.5,1c-2.2,6.1-4.5,18.9-3.7,45.4
	c1.5,48.8,2.2,82.1,2.2,82.1v73.9c0,0-32.5,71-14.8,71s30.3-56.2,30.3-56.2s16.3-85,11.1-99.8C520.4,339.7,535,237.6,504.5,219.9z"
	/>
<ellipse class="st4" cx="399.3" cy="139.1" rx="31.7" ry="21.6"/>
<circle class="st4" cx="449.6" cy="91.8" r="30.3"/>
<path class="st4" d="M471.3,113.5c-15.7,0-28.9-12.1-30.2-27.8c-0.1,0.8-0.1,1.7-0.1,2.5c0,16.7,13.6,30.3,30.3,30.3
	c16.7,0,30.3-13.6,30.3-30.3c0-0.9,0-1.7-0.1-2.5C500.1,101.4,487,113.4,471.3,113.5z"/>
<ellipse transform="matrix(0.9726 -0.2323 0.2323 0.9726 -25.1026 106.2028)" class="st5" cx="438.3" cy="159.7" rx="2.6" ry="5.9"/>
<circle class="st0" cx="439.5" cy="163.4" r="1.5"/>
<path class="st2" d="M87.9,290c-6.6,0-12-5.4-12-12s5.4-12,12-12s12,5.4,12,12C99.9,284.7,94.5,290,87.9,290z M87.9,268
	c-5.5,0-10,4.5-10,10s4.5,10,10,10s10-4.5,10-10C97.9,272.5,93.4,268,87.9,268z"/>
<path class="st2" d="M607.4,202.5h-26v-26h26V202.5z M583.4,200.5h22v-22h-22V200.5z"/>
<path class="st0" d="M689.5,142.3c-46.3,0.2-83.9,0.9-83.9,0.9s44.8-59.3,83.8-37.3c39,22,83.8,36.6,83.8,36.6
	S735.7,142.1,689.5,142.3z"/>
<path class="st0" d="M250.8,167.9l-107-55c-7.3-3.8-10.2-12.7-6.4-20l25.2-49c0.7-1.4,2-2.5,3.6-3l84.3-24.6c7-2,14.4,1.8,16.8,8.6
	l27.7,79c1.4,4,1.1,8.4-0.8,12.1l-23.3,45.4C267.1,168.8,258.1,171.7,250.8,167.9C250.8,167.9,250.8,167.9,250.8,167.9z"/>
<path class="st6" d="M255.1,148.5l-108-46.1c-3.5-1.8-0.2,1,1.6-2.5l13.6-55.2l132.4,68.1l-33.5,41.4
	C259.3,157.5,258.6,150.3,255.1,148.5z"/>
<path class="st7" d="M163.7,41.4"/>
<path class="st3" d="M154.4,102.6l43.1-83.9c2.1-4,7-5.6,11-3.5l83.9,43.1c4,2.1,5.6,7,3.5,11l-43.1,83.9c-2.1,4-7,5.6-11,3.5
	l-83.9-43.1C153.9,111.5,152.3,106.6,154.4,102.6z"/>
<polygon class="st6" points="276.9,106.4 249,160.5 150.6,109.9 178.4,55.8 215.4,104.9 "/>
<path class="st0" d="M213.8,107.9L166.5,45c-1-1.3-2.8-1.5-4-0.6c-0.3,0.3-0.6,0.6-0.8,1l-27,52.4c-2.3,4.4-0.5,9.8,3.9,12.1
	c0,0,0,0,0,0L256,170.4c4.4,2.3,9.8,0.5,12.1-3.9l0,0l26.5-51.5c0.9-1.7,0.2-3.8-1.5-4.7c-0.5-0.2-1-0.4-1.5-0.4L213.8,107.9z"/>
<rect x="215.6" y="18.4" transform="matrix(0.4573 -0.8893 0.8893 0.4573 88.1095 212.0872)" class="st0" width="4.4" height="31"/>
<rect x="234.6" y="14" transform="matrix(0.4573 -0.8893 0.8893 0.4573 74.6407 242.3038)" class="st0" width="2.5" height="91.9"/>
<rect x="230.7" y="21.5" transform="matrix(0.4573 -0.8893 0.8893 0.4573 65.869 242.9449)" class="st0" width="2.5" height="91.9"/>
<rect x="226.9" y="29" transform="matrix(0.4573 -0.8893 0.8893 0.4573 57.0973 243.5861)" class="st0" width="2.5" height="91.9"/>
<ellipse transform="matrix(0.4573 -0.8893 0.8893 0.4573 97.5756 190.002)" class="st8" cx="204.5" cy="15.1" rx="12.8" ry="12.8"/>
<path class="st9" d="M211.3,1.7c-7.5-3.9-16.8-0.9-20.6,6.6c-3.9,7.5-0.9,16.8,6.6,20.6c7.5,3.9,16.8,0.9,20.6-6.6
	C221.8,14.8,218.8,5.6,211.3,1.7z M197.8,21.1l-3.4-10.6l3-1l2.4,7.6l16.1-5.2l1,3L197.8,21.1L197.8,21.1z"/>
</svg>
